<?xml version="1.0" standalone="no"?>
<!DOCTYPE svg PUBLIC "-//W3C//DTD SVG 20010904//EN"
 "http://www.w3.org/TR/2001/REC-SVG-20010904/DTD/svg10.dtd">
<svg version="1.0" xmlns="http://www.w3.org/2000/svg"
 width="168.000000pt" height="168.000000pt" viewBox="0 0 168.000000 168.000000"
 preserveAspectRatio="xMidYMid meet">
<metadata>
Created by potrace 1.11, written by Peter Selinger 2001-2013
</metadata>
<g transform="translate(0.000000,168.000000) scale(0.100000,-0.100000)"
fill="#000000" stroke="none">
<path d="M255 1547 c-2 -12 -7 -47 -10 -77 -12 -113 -17 -148 -35 -255 -18
-104 -18 -111 -2 -123 38 -29 63 -11 106 74 78 155 162 238 272 270 38 11 95
14 236 12 l185 -3 -404 -575 c-222 -316 -418 -595 -434 -619 -22 -31 -29 -51
-24 -68 5 -21 9 -23 38 -17 44 10 1107 13 1182 4 33 -4 61 -6 62 -6 1 1 5 42
8 91 4 50 8 106 10 125 2 19 6 73 10 120 4 46 8 95 10 107 4 40 -67 59 -86 23
-4 -8 -21 -44 -37 -80 -34 -71 -121 -171 -187 -212 -81 -51 -128 -59 -335 -60
-105 0 -193 1 -195 3 -2 2 101 153 228 334 127 182 311 445 408 585 98 140
182 260 187 265 32 38 43 64 33 84 -10 17 -17 19 -68 13 -75 -9 -1021 -9
-1095 0 -54 6 -58 5 -63 -15z"/>
</g>
</svg>
